<svg width="24" height="24" viewBox="0 0 24 24" fill="none" xmlns="http://www.w3.org/2000/svg">
<path d="M5.69326 18C4.94513 18 4.30922 17.6995 3.78553 17.0985C3.26184 16.4976 3 15.7678 3 14.9093V11.8185C3 11.5266 3.08618 11.2821 3.25855 11.085C3.43092 10.8879 3.64399 10.789 3.89775 10.7883H14.6932C14.768 10.2217 14.97 9.71512 15.2992 9.26868C15.6284 8.82224 16.0324 8.50459 16.5112 8.31571L19.8104 7.05366C20.0498 6.9678 20.2817 6.98498 20.5062 7.10517C20.7306 7.22537 20.8802 7.42283 20.955 7.69756C21.0299 7.97229 21.0113 8.23844 20.8994 8.496C20.7875 8.75356 20.6115 8.92527 20.3715 9.01112L17.0723 10.2732C16.8927 10.3419 16.7467 10.4665 16.6342 10.6471C16.5216 10.8278 16.4657 11.0294 16.4663 11.2519V14.9093C16.4663 15.7678 16.2044 16.4976 15.6807 17.0985C15.1571 17.6995 14.5212 18 13.773 18H5.69326Z" fill="#D5D5D5"/>
</svg>
