<svg width="24" height="24" viewBox="0 0 24 24" fill="none" xmlns="http://www.w3.org/2000/svg">
<path fill-rule="evenodd" clip-rule="evenodd" d="M11.4696 22.3188L11.4732 22.32C11.7049 22.4211 11.8343 22.3976 11.8343 22.3976C11.8343 22.3976 11.9637 22.4211 12.1966 22.32L12.199 22.3188L12.206 22.3153L12.2272 22.3059C12.3388 22.2539 12.449 22.199 12.5577 22.1412C12.7765 22.0283 13.0824 21.8589 13.4482 21.6318C14.1775 21.1801 15.148 20.4955 16.1232 19.5556C18.0712 17.6782 20.0686 14.7432 20.0686 10.6343C20.0686 9.55297 19.8556 8.48221 19.4418 7.48317C19.028 6.48414 18.4215 5.5764 17.6568 4.81177C16.8922 4.04714 15.9845 3.44061 14.9854 3.02679C13.9864 2.61298 12.9156 2.39999 11.8343 2.39999C10.7529 2.39999 9.68219 2.61298 8.68316 3.02679C7.68412 3.44061 6.77638 4.04714 6.01175 4.81177C5.24712 5.5764 4.64059 6.48414 4.22678 7.48317C3.81296 8.48221 3.59998 9.55297 3.59998 10.6343C3.59998 14.7421 5.59739 17.6782 7.54657 19.5556C8.36247 20.3396 9.25868 21.0355 10.2204 21.6318C10.5929 21.8629 10.976 22.0764 11.3685 22.2718L11.4414 22.3059L11.4626 22.3153L11.4696 22.3188ZM11.8343 13.2811C12.5363 13.2811 13.2095 13.0022 13.7058 12.5058C14.2022 12.0095 14.481 11.3363 14.481 10.6343C14.481 9.93235 14.2022 9.25914 13.7058 8.76278C13.2095 8.26642 12.5363 7.98757 11.8343 7.98757C11.1323 7.98757 10.4591 8.26642 9.96276 8.76278C9.4664 9.25914 9.18755 9.93235 9.18755 10.6343C9.18755 11.3363 9.4664 12.0095 9.96276 12.5058C10.4591 13.0022 11.1323 13.2811 11.8343 13.2811Z" fill="#D5D5D5"/>
</svg>
