<svg width="36" height="36" viewBox="0 0 36 36" fill="none" xmlns="http://www.w3.org/2000/svg">
<path d="M3 31.5V27C3 26.675 3.05 26.3625 3.15 26.0625C3.25 25.7625 3.4 25.475 3.6 25.2L16.125 8.32502L14.4 6.00002C14.275 5.82502 14.1875 5.64402 14.1375 5.45702C14.0875 5.27002 14.075 5.08252 14.1 4.89452C14.125 4.70652 14.1875 4.52502 14.2875 4.35002C14.3875 4.17502 14.525 4.02502 14.7 3.90002C15.05 3.65002 15.425 3.55002 15.825 3.60002C16.225 3.65002 16.55 3.85002 16.8 4.20002L18 5.81252L19.2 4.20002C19.45 3.85002 19.775 3.65002 20.175 3.60002C20.575 3.55002 20.95 3.65002 21.3 3.90002C21.65 4.15002 21.85 4.47502 21.9 4.87502C21.95 5.27502 21.85 5.65002 21.6 6.00002L19.875 8.32502L32.4 25.2C32.6 25.475 32.75 25.7625 32.85 26.0625C32.95 26.3625 33 26.675 33 27V31.5C33 31.925 32.8565 32.2815 32.5695 32.5695C32.2825 32.8575 31.926 33.001 31.5 33H4.5C4.075 33 3.719 32.856 3.432 32.568C3.145 32.28 3.001 31.924 3 31.5ZM12.3375 30H23.6625L18 22.0875L12.3375 30Z" fill="#04101C"/>
</svg>
